<?xml version="1.0" standalone="no"?><!DOCTYPE svg PUBLIC "-//W3C//DTD SVG 1.1//EN" "http://www.w3.org/Graphics/SVG/1.1/DTD/svg11.dtd">
<svg t="1600268960170" class="icon" viewBox="0 0 1024 1024" version="1.1"
    xmlns="http://www.w3.org/2000/svg" p-id="3138"
    xmlns:xlink="http://www.w3.org/1999/xlink" width="32" height="32">
    <defs>
        <style type="text/css"></style>
    </defs>
    <path d="M548.571429 585.142857m-347.428572 0a347.428571 347.428571 0 1 0 694.857143 0 347.428571 347.428571 0 1 0-694.857143 0Z" fill="#EEF5FE" p-id="3139"></path>
    <path d="M501.028571 965.485714C263.314286 965.485714 73.142857 775.314286 73.142857 537.6S263.314286 109.714286 501.028571 109.714286s427.885714 190.171429 427.885715 427.885714-190.171429 427.885714-427.885715 427.885714z m0-800.914285C296.228571 164.571429 128 332.8 128 537.6s168.228571 373.028571 373.028571 373.028571 373.028571-168.228571 373.028572-373.028571S705.828571 164.571429 501.028571 164.571429zM73.142857 226.742857c-14.628571-7.314286-21.942857-21.942857-14.628571-36.571428 36.571429-65.828571 106.057143-113.371429 160.914285-131.657143 14.628571-3.657143 29.257143 3.657143 32.914286 18.285714s-3.657143 29.257143-18.285714 32.914286C193.828571 124.342857 135.314286 164.571429 109.714286 215.771429c-7.314286 10.971429-21.942857 18.285714-36.571429 10.971428zM914.285714 215.771429c-25.6-51.2-84.114286-91.428571-128-106.057143-14.628571-3.657143-21.942857-21.942857-18.285714-32.914286 3.657143-14.628571 21.942857-21.942857 32.914286-18.285714 51.2 18.285714 124.342857 65.828571 157.257143 131.657143 7.314286 14.628571 3.657143 29.257143-10.971429 36.571428-10.971429 3.657143-25.6 0-32.914286-10.971428z" fill="#262626" p-id="3140"></path>
    <path d="M482.742857 402.285714c14.628571 0 29.257143 10.971429 29.257143 29.257143v164.571429c0 14.628571-10.971429 29.257143-29.257143 29.257143-14.628571 0-29.257143-10.971429-29.257143-29.257143v-164.571429c3.657143-18.285714 14.628571-29.257143 29.257143-29.257143z" fill="#3496FB" p-id="3141"></path>
    <path d="M676.571429 596.114286c0 14.628571-10.971429 29.257143-29.257143 29.257143h-164.571429c-14.628571 0-29.257143-10.971429-29.257143-29.257143 0-14.628571 10.971429-29.257143 29.257143-29.257143h164.571429c18.285714 3.657143 29.257143 14.628571 29.257143 29.257143z" fill="#3496FB" p-id="3142"></path>
</svg>