<?xml version="1.0" standalone="no"?><!DOCTYPE svg PUBLIC "-//W3C//DTD SVG 1.1//EN" "http://www.w3.org/Graphics/SVG/1.1/DTD/svg11.dtd">
<svg t="1600268969886" class="icon" viewBox="0 0 1024 1024" version="1.1"
    xmlns="http://www.w3.org/2000/svg" p-id="3436"
    xmlns:xlink="http://www.w3.org/1999/xlink" width="32" height="32">
    <defs>
        <style type="text/css"></style>
    </defs>
<!--    <path d="M310.857143 201.142857h512c40.228571 0 73.142857 32.914286 73.142857 73.142857v629.028572c0 21.942857-14.628571 36.571429-36.571429 36.571428-3.657143 0-10.971429 0-14.628571-3.657143l-329.142857-131.657142c-14.628571-7.314286-32.914286-3.657143-47.542857 3.657142L292.571429 921.6c-18.285714 10.971429-40.228571 7.314286-51.2-10.971429-3.657143-7.314286-7.314286-10.971429-7.314286-18.285714V274.285714c3.657143-40.228571 36.571429-73.142857 76.8-73.142857z" fill="#FDEDEE" p-id="3437"></path>-->
    <path d="M182.857143 969.142857c-25.6 0-54.857143-14.628571-65.828572-40.228571-3.657143-10.971429-7.314286-21.942857-7.314285-32.914286V219.428571c0-80.457143 65.828571-146.285714 146.285714-146.285714h512c80.457143 0 146.285714 65.828571 146.285714 146.285714v676.571429c0 40.228571-32.914286 73.142857-73.142857 73.142857-10.971429 0-21.942857-3.657143-32.914286-7.314286l-274.285714-135.314285c-14.628571-7.314286-29.257143-7.314286-43.885714 0l-274.285714 135.314285c-10.971429 3.657143-21.942857 7.314286-32.914286 7.314286z m73.142857-841.142857C204.8 128 164.571429 168.228571 164.571429 219.428571v676.571429c0 3.657143 0 7.314286 3.657142 7.314286 3.657143 7.314286 14.628571 10.971429 21.942858 7.314285l274.285714-135.314285c29.257143-14.628571 65.828571-14.628571 95.085714 0l274.285714 135.314285c10.971429 7.314286 25.6-3.657143 25.6-14.628571V219.428571c0-51.2-40.228571-91.428571-91.428571-91.428571H256z" fill="#262626" p-id="3438"></path>
    <path d="M431.542857 292.571429h164.571429c14.628571 0 25.6 10.971429 25.6 29.257142 0 14.628571-10.971429 29.257143-29.257143 29.257143h-164.571429c-14.628571 0-29.257143-10.971429-29.257143-29.257143 3.657143-18.285714 14.628571-29.257143 32.914286-29.257142z" fill="#FB3449" p-id="3439"></path>
</svg>