<?xml version="1.0" standalone="no"?><!DOCTYPE svg PUBLIC "-//W3C//DTD SVG 1.1//EN" "http://www.w3.org/Graphics/SVG/1.1/DTD/svg11.dtd">
<svg t="1600268914636" class="icon" viewBox="0 0 1024 1024" version="1.1"
    xmlns="http://www.w3.org/2000/svg" p-id="1951"
    xmlns:xlink="http://www.w3.org/1999/xlink" width="32" height="32">
<!--    <defs>-->
<!--        <style type="text/css"></style>-->
<!--    </defs>-->
    <path d="M713.142857 676.571429h146.285714c21.942857 0 36.571429 14.628571 36.571429 36.571428v146.285714c0 21.942857-14.628571 36.571429-36.571429 36.571429h-146.285714c-21.942857 0-36.571429-14.628571-36.571428-36.571429v-146.285714c0-21.942857 14.628571-36.571429 36.571428-36.571428z" fill="#c5c8fa" p-id="1952"></path>
    <path d="M237.714286 676.571429h146.285714c21.942857 0 36.571429 14.628571 36.571429 36.571428v146.285714c0 21.942857-14.628571 36.571429-36.571429 36.571429h-146.285714c-21.942857 0-36.571429-14.628571-36.571429-36.571429v-146.285714c0-21.942857 14.628571-36.571429 36.571429-36.571428z" fill="#c5c8fa" p-id="1953"></path>
    <path d="M237.714286 201.142857h146.285714c21.942857 0 36.571429 14.628571 36.571429 36.571429v146.285714c0 21.942857-14.628571 36.571429-36.571429 36.571429h-146.285714c-21.942857 0-36.571429-14.628571-36.571429-36.571429v-146.285714c0-21.942857 14.628571-36.571429 36.571429-36.571429z" fill="#c5c8fa" p-id="1954"></path>
    <path d="M786.285714 201.142857c62.171429 0 109.714286 47.542857 109.714286 109.714286s-47.542857 109.714286-109.714286 109.714286-109.714286-47.542857-109.714285-109.714286 47.542857-109.714286 109.714285-109.714286z" fill="#c5c8fa" p-id="1955"></path>
    <path d="M749.714286 475.428571c-109.714286 0-201.142857-91.428571-201.142857-201.142857S640 73.142857 749.714286 73.142857 950.857143 164.571429 950.857143 274.285714 859.428571 475.428571 749.714286 475.428571z m0-347.428571c-80.457143 0-146.285714 65.828571-146.285715 146.285714s65.828571 146.285714 146.285715 146.285715 146.285714-65.828571 146.285714-146.285715-65.828571-146.285714-146.285714-146.285714z" fill="#5360FF" p-id="1956"></path>
    <path d="M321.828571 950.857143H197.485714c-76.8 0-138.971429-62.171429-138.971428-138.971429v-128c0-73.142857 62.171429-135.314286 138.971428-135.314285h128c76.8 0 138.971429 62.171429 138.971429 138.971428v128c-3.657143 73.142857-65.828571 135.314286-142.628572 135.314286z m-124.342857-347.428572c-43.885714 0-80.457143 36.571429-80.457143 80.457143v128c0 43.885714 36.571429 80.457143 80.457143 80.457143h128c43.885714 0 80.457143-36.571429 80.457143-80.457143v-128c0-43.885714-36.571429-80.457143-80.457143-80.457143H197.485714zM321.828571 475.428571H197.485714c-76.8 0-138.971429-62.171429-138.971428-138.971428V208.457143c0-73.142857 62.171429-135.314286 138.971428-135.314286h128c76.8 0 138.971429 62.171429 138.971429 138.971429v128c-3.657143 73.142857-65.828571 135.314286-142.628572 135.314285zM197.485714 128c-43.885714 0-80.457143 36.571429-80.457143 80.457143v128c0 43.885714 36.571429 80.457143 80.457143 80.457143h128c43.885714 0 80.457143-36.571429 80.457143-80.457143V208.457143c0-43.885714-36.571429-80.457143-80.457143-80.457143H197.485714zM811.885714 950.857143h-128c-76.8 0-138.971429-62.171429-138.971428-138.971429v-128c0-76.8 62.171429-138.971429 138.971428-138.971428h128c76.8 0 138.971429 62.171429 138.971429 138.971428v128c0 76.8-62.171429 138.971429-138.971429 138.971429z m-124.342857-347.428572c-43.885714 0-80.457143 36.571429-80.457143 80.457143v128c0 43.885714 36.571429 80.457143 80.457143 80.457143h128c43.885714 0 80.457143-36.571429 80.457143-80.457143v-128c0-43.885714-36.571429-80.457143-80.457143-80.457143h-128z" fill="#262626" p-id="1957"></path>
</svg>