<?xml version="1.0" standalone="no"?><!DOCTYPE svg PUBLIC "-//W3C//DTD SVG 1.1//EN" "http://www.w3.org/Graphics/SVG/1.1/DTD/svg11.dtd">
<svg t="1600268925799" class="icon" viewBox="0 0 1024 1024" version="1.1"
    xmlns="http://www.w3.org/2000/svg" p-id="2250"
    xmlns:xlink="http://www.w3.org/1999/xlink" width="32" height="32">
    <defs>
        <style type="text/css"></style>
    </defs>
<!--    <path d="M566.857143 566.857143m-402.285714 0a402.285714 402.285714 0 1 0 804.571428 0 402.285714 402.285714 0 1 0-804.571428 0Z" fill="#F0FAED" p-id="2251"></path>-->
    <path d="M512 987.428571C248.685714 987.428571 36.571429 775.314286 36.571429 512S248.685714 36.571429 512 36.571429s475.428571 212.114286 475.428571 475.428571-212.114286 475.428571-475.428571 475.428571z m0-896C281.6 91.428571 91.428571 281.6 91.428571 512S281.6 932.571429 512 932.571429 932.571429 742.4 932.571429 512 742.4 91.428571 512 91.428571z" fill="#262626" p-id="2252"></path>
    <path d="M512 665.6c-25.6 0-51.2-10.971429-69.485714-29.257143L391.314286 585.142857c-40.228571-40.228571-40.228571-102.4 0-142.628571l51.2-51.2c40.228571-40.228571 102.4-40.228571 142.628571 0l51.2 51.2c18.285714 18.285714 29.257143 43.885714 29.257143 69.485714s-10.971429 51.2-29.257143 69.485714L585.142857 632.685714c-21.942857 21.942857-47.542857 32.914286-73.142857 32.914286z m0-252.342857c-10.971429 0-21.942857 3.657143-32.914286 14.628571l-51.2 51.2c-18.285714 18.285714-18.285714 47.542857 0 65.828572l51.2 51.2c18.285714 18.285714 47.542857 18.285714 65.828572 0l51.2-51.2c7.314286-7.314286 14.628571-18.285714 14.628571-32.914286s-3.657143-21.942857-14.628571-32.914286l-51.2-51.2c-10.971429-7.314286-21.942857-14.628571-32.914286-14.628571z" fill="#FBCA34" p-id="2253"></path>
</svg>