<?xml version="1.0" standalone="no"?><!DOCTYPE svg PUBLIC "-//W3C//DTD SVG 1.1//EN" "http://www.w3.org/Graphics/SVG/1.1/DTD/svg11.dtd">
<svg t="1598855823522" class="icon" viewBox="0 0 1024 1024" version="1.1"
    xmlns="http://www.w3.org/2000/svg" p-id="1666" data-spm-anchor-id="a313x.7781069.0.i9" width="32" height="32"
    xmlns:xlink="http://www.w3.org/1999/xlink">
    <!-- <defs>
        <style type="text/css"></style>
    </defs> -->
    <path d="M456 529.1l239.9 241 140.5-399.8z" fill="#0ff5eb" p-id="1667" data-spm-anchor-id="a313x.7781069.0.i0" class="selected"></path>
    <path d="M583.6 959h-0.7c-25.5-0.3-47.7-16-56.5-40l-67.9-185.5c-20.9-57-65.6-101.7-122.6-122.6L150.4 543c-24-8.8-39.7-30.9-40-56.5-0.3-25.5 14.9-48 38.7-57.4l687-269.3c21-8.2 44.8-3.2 60.7 12.7 15.9 15.9 20.9 39.7 12.7 60.7l-269.4 687c-9.1 23.6-31.3 38.8-56.5 38.8zM198.4 485.6l161.7 59.2c76.6 28 136.6 88 164.6 164.5L583.9 871l248.5-634-634 248.6z m663.5-260.1z" fill="#f8c643" p-id="1668" data-spm-anchor-id="a313x.7781069.0.i7" class="selected"></path>
</svg>