<?xml version="1.0" standalone="no"?><!DOCTYPE svg PUBLIC "-//W3C//DTD SVG 1.1//EN" "http://www.w3.org/Graphics/SVG/1.1/DTD/svg11.dtd">
<svg t="1600269022991" class="icon" viewBox="0 0 1024 1024" version="1.1"
    xmlns="http://www.w3.org/2000/svg" p-id="3584"
    xmlns:xlink="http://www.w3.org/1999/xlink" width="32" height="32">
    <defs>
        <style type="text/css"></style>
    </defs>
    <path d="M548.571429 164.571429h91.428571c21.942857 0 36.571429 14.628571 36.571429 36.571428V329.142857c0 69.485714-58.514286 128-128 128s-128-58.514286-128-128V292.571429c0-69.485714 58.514286-128 128-128z" fill="#fcc9cd" p-id="3585"></path>
    <path d="M512 512c-120.685714 0-219.428571-98.742857-219.428571-219.428571V256c0-120.685714 98.742857-219.428571 219.428571-219.428571h146.285714c40.228571 0 73.142857 32.914286 73.142857 73.142857v182.857143c0 120.685714-98.742857 219.428571-219.428571 219.428571z m0-420.571429c-91.428571 0-164.571429 73.142857-164.571429 164.571429v36.571429c0 91.428571 73.142857 164.571429 164.571429 164.571428s164.571429-73.142857 164.571429-164.571428V109.714286c0-10.971429-7.314286-18.285714-18.285715-18.285715h-146.285714z" fill="#262626" p-id="3586"></path>
    <path d="M314.514286 713.142857h457.142857c58.514286 0 109.714286 32.914286 135.314286 87.771429l18.285714 40.228571c18.285714 47.542857 0 98.742857-47.542857 120.685714-10.971429 3.657143-25.6 7.314286-36.571429 7.314286H263.314286c-54.857143 0-98.742857-43.885714-98.742857-98.742857 0-10.971429 0-18.285714 3.657142-29.257143l7.314286-21.942857c18.285714-62.171429 73.142857-106.057143 138.971429-106.057143z" fill="#fcc9cd" p-id="3587"></path>
    <path d="M815.542857 987.428571H208.457143c-87.771429 0-160.914286-73.142857-160.914286-160.914285 0-14.628571 3.657143-29.257143 7.314286-40.228572l10.971428-40.228571c25.6-95.085714 113.371429-160.914286 212.114286-160.914286h468.114286c98.742857 0 186.514286 65.828571 212.114286 160.914286l10.971428 40.228571c10.971429 40.228571 7.314286 84.114286-14.628571 120.685715s-54.857143 62.171429-95.085715 73.142857c-14.628571 3.657143-29.257143 7.314286-43.885714 7.314285zM277.942857 643.657143c-73.142857 0-138.971429 47.542857-157.257143 117.028571L109.714286 800.914286c-3.657143 7.314286-3.657143 18.285714-3.657143 29.257143 0 58.514286 47.542857 106.057143 106.057143 106.057142h607.085714c10.971429 0 18.285714 0 29.257143-3.657142 25.6-7.314286 47.542857-25.6 62.171428-47.542858 14.628571-25.6 18.285714-51.2 10.971429-80.457142l-10.971429-40.228572c-18.285714-73.142857-84.114286-120.685714-157.257142-120.685714h-475.428572z" fill="#262626" p-id="3588" data-spm-anchor-id="a313x.7781069.0.i16" class=""></path>
    <path d="M438.857143 585.142857c0 40.228571 32.914286 73.142857 73.142857 73.142857s73.142857-32.914286 73.142857-73.142857" fill="#93dde2" p-id="3589" data-spm-anchor-id="a313x.7781069.0.i15" class="selected"></path>
    <path d="M482.742857 621.714286h54.857143l25.6 153.6c0 7.314286 0 10.971429-3.657143 14.628571l-36.571428 36.571429c-7.314286 7.314286-18.285714 7.314286-25.6 0l-36.571429-36.571429c-3.657143-3.657143-7.314286-10.971429-3.657143-14.628571l25.6-153.6z" fill="#93dde2" p-id="3590" data-spm-anchor-id="a313x.7781069.0.i14" class=""></path>
</svg>