<?xml version="1.0" standalone="no"?><!DOCTYPE svg PUBLIC "-//W3C//DTD SVG 1.1//EN" "http://www.w3.org/Graphics/SVG/1.1/DTD/svg11.dtd">
<svg t="1600268937452" class="icon" viewBox="0 0 1024 1024" version="1.1"
    xmlns="http://www.w3.org/2000/svg" p-id="2546"
    xmlns:xlink="http://www.w3.org/1999/xlink" width="32" height="32">
    <defs>
        <style type="text/css"></style>
    </defs>
    <path d="M512 987.428571C248.685714 987.428571 36.571429 775.314286 36.571429 512S248.685714 36.571429 512 36.571429s475.428571 212.114286 475.428571 475.428571-212.114286 475.428571-475.428571 475.428571z m0-896C281.6 91.428571 91.428571 281.6 91.428571 512S281.6 932.571429 512 932.571429 932.571429 742.4 932.571429 512 742.4 91.428571 512 91.428571z" fill="#262626" p-id="2548"></path>
    <path d="M457.142857 650.971429c-18.285714 0-36.571429-7.314286-47.542857-25.6-3.657143-7.314286-7.314286-18.285714-7.314286-29.257143v-168.228572c0-29.257143 25.6-54.857143 54.857143-54.857143 10.971429 0 21.942857 3.657143 29.257143 7.314286l135.314286 84.114286c10.971429 7.314286 21.942857 18.285714 25.6 32.914286s0 29.257143-7.314286 40.228571c-3.657143 7.314286-10.971429 14.628571-18.285714 18.285714l-135.314286 84.114286c-10.971429 7.314286-18.285714 10.971429-29.257143 10.971429z m0-223.085715v168.228572l135.314286-84.114286-135.314286-84.114286z" fill="#5360FF" p-id="2549"></path>
</svg>