<?xml version="1.0" standalone="no"?><!DOCTYPE svg PUBLIC "-//W3C//DTD SVG 1.1//EN" "http://www.w3.org/Graphics/SVG/1.1/DTD/svg11.dtd">
<svg t="1600268934058" class="icon" viewBox="0 0 1024 1024" version="1.1"
    xmlns="http://www.w3.org/2000/svg" p-id="2398"
    xmlns:xlink="http://www.w3.org/1999/xlink" width="32" height="32">
<!--    <defs>-->
<!--        <style type="text/css"></style>-->
<!--    </defs>-->
    <!-- <path d="M117.028571 544.914286l190.171429-329.142857c14.628571-21.942857 36.571429-36.571429 62.171429-36.571429h384c54.857143 0 102.4 29.257143 128 76.8l102.4 186.514286c25.6 43.885714 25.6 98.742857 0 142.628571l-171.885715 299.885714c-25.6 43.885714-73.142857 73.142857-128 73.142858h-310.857143c-47.542857 0-95.085714-25.6-120.685714-65.828572l-128-193.828571c-32.914286-47.542857-32.914286-106.057143-7.314286-153.6z" fill="#F0FAED" p-id="2399"></path> -->
    <path d="M683.885714 954.514286H340.114286c-51.2 0-102.4-29.257143-128-73.142857L43.885714 585.142857c-25.6-43.885714-25.6-102.4 0-146.285714l171.885715-296.228572c25.6-43.885714 73.142857-73.142857 128-73.142857h343.771428c51.2 0 102.4 29.257143 128 73.142857L987.428571 438.857143c25.6 43.885714 25.6 102.4 0 146.285714l-171.885714 296.228572c-32.914286 47.542857-80.457143 73.142857-131.657143 73.142857zM340.114286 124.342857c-32.914286 0-62.171429 18.285714-80.457143 43.885714l-171.885714 296.228572c-14.628571 29.257143-14.628571 62.171429 0 91.428571l171.885714 296.228572c14.628571 29.257143 47.542857 43.885714 80.457143 43.885714h343.771428c32.914286 0 62.171429-18.285714 80.457143-43.885714l171.885714-296.228572c14.628571-29.257143 14.628571-62.171429 0-91.428571l-171.885714-296.228572c-14.628571-29.257143-47.542857-43.885714-80.457143-43.885714H340.114286z" fill="#666666" p-id="2400"></path>
    <path d="M512 658.285714c-80.457143 0-146.285714-65.828571-146.285714-146.285714s65.828571-146.285714 146.285714-146.285714 146.285714 65.828571 146.285714 146.285714-65.828571 146.285714-146.285714 146.285714z m0-237.714285c-51.2 0-91.428571 40.228571-91.428571 91.428571s40.228571 91.428571 91.428571 91.428571 91.428571-40.228571 91.428571-91.428571-40.228571-91.428571-91.428571-91.428571z" fill="#14CC2D" p-id="2401"></path>
</svg>