<?xml version="1.0" standalone="no"?>
<svg t="1596550098986" class="icon" viewBox="0 0 1024 1024" version="1.1"
    xmlns="http://www.w3.org/2000/svg" p-id="6998"
    xmlns:xlink="http://www.w3.org/1999/xlink" width="32" height="32">
<!--    <defs>-->
<!--        <style type="text/css"></style>-->
<!--    </defs>-->
    <path d="M136.533333 392.533333h750.933334v68.266667H136.533333z" fill="#f5af3c" p-id="6999" data-spm-anchor-id="a313x.7781069.0.i26" class=""></path>
    <path d="M170.666667 256.034133v614.331734C170.666667 889.224533 185.975467 904.533333 204.834133 904.533333h614.331734A34.184533 34.184533 0 0 0 853.333333 870.365867V256.034133A34.184533 34.184533 0 0 0 819.165867 221.866667H204.834133A34.184533 34.184533 0 0 0 170.666667 256.034133z m-68.266667 0A102.4512 102.4512 0 0 1 204.834133 153.6h614.331734A102.4512 102.4512 0 0 1 921.6 256.034133v614.331734A102.4512 102.4512 0 0 1 819.165867 972.8H204.834133A102.4512 102.4512 0 0 1 102.4 870.365867V256.034133z" fill="#2B2B2B" p-id="7000"></path>
    <path d="M341.333333 290.133333m0-34.133333l0-136.533333q0-34.133333 34.133334-34.133334l0 0q34.133333 0 34.133333 34.133334l0 136.533333q0 34.133333-34.133333 34.133333l0 0q-34.133333 0-34.133334-34.133333Z" fill="#f5af3c" p-id="7001" data-spm-anchor-id="a313x.7781069.0.i33" class=""></path>
    <path d="M614.4 290.133333m0-34.133333l0-136.533333q0-34.133333 34.133333-34.133334l0 0q34.133333 0 34.133334 34.133334l0 136.533333q0 34.133333-34.133334 34.133333l0 0q-34.133333 0-34.133333-34.133333Z" fill="#f5af3c" p-id="7002" data-spm-anchor-id="a313x.7781069.0.i34" class=""></path>
</svg>