<?xml version="1.0" standalone="no"?>
<svg version="1.0" xmlns="http://www.w3.org/2000/svg" width="24" height="24"
    viewBox="0 0 300.000000 300.000000" preserveAspectRatio="xMidYMid meet">

    <g transform="translate(0.000000,300.000000) scale(0.100000,-0.100000)" fill="#000000"
        stroke="none">
        <path d="M1370 2739 c-315 -31 -614 -189 -819 -433 -172 -203 -266 -429 -290
-694 -37 -406 124 -801 433 -1061 203 -172 429 -266 694 -290 477 -43 927 184
1178 594 237 387 238 896 4 1285 -250 416 -712 647 -1200 599z m345 -199 c118
-25 192 -51 284 -101 260 -139 448 -375 527 -659 35 -128 44 -346 20 -471 -35
-177 -96 -314 -199 -451 -141 -187 -338 -320 -572 -385 -92 -26 -114 -28 -275
-28 -161 0 -183 2 -275 28 -403 112 -689 421 -771 836 -24 125 -15 343 20 471
92 331 349 611 662 721 175 61 405 77 579 39z" fill="#515151" />
        <path d="M1104 1150 c-47 -19 -66 -74 -43 -124 22 -48 170 -130 289 -161 74
-19 226 -19 300 0 119 31 267 113 289 161 26 58 -3 118 -64 130 -30 5 -45 0
-107 -40 -177 -114 -360 -114 -534 -1 -70 45 -91 51 -130 35z" fill="#f1c72d" />
    </g>
</svg>
