<?xml version="1.0" standalone="no"?><!DOCTYPE svg PUBLIC "-//W3C//DTD SVG 1.1//EN" "http://www.w3.org/Graphics/SVG/1.1/DTD/svg11.dtd">
<svg t="1600342050947" class="icon" viewBox="0 0 1024 1024" version="1.1"
    xmlns="http://www.w3.org/2000/svg" p-id="2551"
    xmlns:xlink="http://www.w3.org/1999/xlink" width="32" height="32">
    <defs>
        <style type="text/css"></style>
    </defs>
    <path d="M394.971429 932.571429H237.714286c-21.942857 0-36.571429-14.628571-36.571429-36.571429v-157.257143c-25.6-51.2-36.571429-109.714286-36.571428-171.885714 0-223.085714 179.2-402.285714 402.285714-402.285714s402.285714 179.2 402.285714 402.285714-179.2 402.285714-402.285714 402.285714c-62.171429 0-120.685714-14.628571-171.885714-36.571428z" fill="#FDEDEE" p-id="2552"></path>
    <path d="M512 987.428571c-62.171429 0-124.342857-10.971429-182.857143-36.571428H182.857143c-62.171429 0-109.714286-47.542857-109.714286-109.714286v-146.285714c-25.6-58.514286-36.571429-120.685714-36.571428-182.857143C36.571429 248.685714 248.685714 36.571429 512 36.571429s475.428571 212.114286 475.428571 475.428571-212.114286 475.428571-475.428571 475.428571z m0-896C281.6 91.428571 91.428571 281.6 91.428571 512c0 54.857143 10.971429 109.714286 32.914286 160.914286l3.657143 10.971428V841.142857c0 29.257143 25.6 54.857143 54.857143 54.857143h157.257143l10.971428 3.657143c51.2 21.942857 106.057143 32.914286 160.914286 32.914286 230.4 0 420.571429-190.171429 420.571429-420.571429S742.4 91.428571 512 91.428571z" fill="#262626" p-id="2553"></path>
    <path d="M512 724.114286c-54.857143 0-106.057143-32.914286-135.314286-87.771429-7.314286-14.628571 0-29.257143 10.971429-36.571428 14.628571-7.314286 29.257143 0 36.571428 10.971428 18.285714 36.571429 51.2 58.514286 84.114286 58.514286 36.571429 0 65.828571-21.942857 84.114286-58.514286 7.314286-14.628571 21.942857-18.285714 36.571428-10.971428s18.285714 21.942857 10.971429 36.571428c-21.942857 51.2-73.142857 87.771429-128 87.771429z" fill="#FB3449" p-id="2554"></path>
</svg>