<?xml version="1.0" standalone="no"?><!DOCTYPE svg PUBLIC "-//W3C//DTD SVG 1.1//EN" "http://www.w3.org/Graphics/SVG/1.1/DTD/svg11.dtd">
<svg t="1600268909420" class="icon" viewBox="0 0 1024 1024" version="1.1"
    xmlns="http://www.w3.org/2000/svg" p-id="1803"
    xmlns:xlink="http://www.w3.org/1999/xlink" width="24" height="24">

    <path fill="#00ACEA" d="M766.65,146.87a65.95,65.95 0,1 1,0 131.9L129.17,278.77a65.95,65.95 0,1 1,0 -131.9zM766.65,146.87"/>
    <path fill="#00EFD1" d="M765.22,279.85v600.51c0,59.01 -42.21,101.36 -94.31,101.36L224.87,981.72c-52.07,0 -94.31,-42.21 -94.31,-101.36L130.55,278.88h634.67zM765.22,279.85"/>
    <path fill="#083863" d="M586.98,364.72a23.57,23.57 0,0 0,-23.57 23.57v445.56a23.57,23.57 0,1 0,47.14 0L610.55,388.29a23.57,23.57 0,0 0,-23.57 -23.57zM586.98,364.72"/>
    <path fill="#083863" d="M308.8,364.72a23.57,23.57 0,0 0,-23.57 23.57v445.56a23.57,23.57 0,0 0,47.14 0L332.37,388.29a23.57,23.57 0,0 0,-23.57 -23.57zM308.8,364.72"/>
    <path fill="#083863" d="M106.08,299.7v580.83a130.03,130.03 0,0 0,34.71 89.7A116.08,116.08 0,0 0,224.87 1006.64h446.05a116.04,116.04 0,0 0,84.25 -36.41,130.06 130.06,0 0,0 34.71,-89.7L789.87,299.7a94.76,94.76 0,0 0,40.72 -23.5,90.25 90.25,0 0,0 -63.83,-153.63h-120.76v-29.44A92.61,92.61 0,0 0,552.58 0L343.23,0a92.61,92.61 0,0 0,-93.37 93.13v29.47L129.17,122.61a90.04,90.04 0,0 0,-23.08 177.03zM670.91,959.51L224.87,959.51c-40.3,0 -71.68,-34.71 -71.68,-78.97L153.19,301.75h589.41v578.78c0,44.36 -31.24,78.97 -71.68,78.97zM297.03,93.14a45.4,45.4 0,0 1,46.2 -45.96h209.35a45.4,45.4 0,0 1,46.2 45.96v29.47L297.03,122.61zM99.18,182.55a42.59,42.59 0,0 1,30.03 -12.81h637.45a42.8,42.8 0,0 1,42.49 42.8,42.11 42.11,0 0,1 -42.42,42.07L129.17,254.61a42.35,42.35 0,0 1,-42.45 -42.24,41.65 41.65,0 0,1 12.43,-29.82zM99.18,182.55"/>
    <path fill="#083863" d="M447.89,364.72a23.57,23.57 0,0 0,-23.57 23.57v445.56a23.57,23.57 0,0 0,47.14 0L471.46,388.29a23.57,23.57 0,0 0,-23.57 -23.57zM447.89,364.72"/>
</svg>