<?xml version="1.0" standalone="no"?>
<!DOCTYPE svg PUBLIC "-//W3C//DTD SVG 20010904//EN"
 "http://www.w3.org/TR/2001/REC-SVG-20010904/DTD/svg10.dtd">
<svg version="1.0" xmlns="http://www.w3.org/2000/svg"
 width="367.000000pt" height="356.000000pt" viewBox="0 0 367.000000 356.000000"
 preserveAspectRatio="xMidYMid meet">

<g transform="translate(0.000000,356.000000) scale(0.100000,-0.100000)"
fill="#000000" stroke="none">
<path d="M2417 2844 c-4 -4 -7 -265 -7 -579 0 -464 -3 -575 -13 -584 -9 -7
-90 -12 -228 -13 l-214 -3 0 -105 0 -105 280 -3 c181 -2 293 1 317 8 71 20 68
-9 66 727 l-3 658 -95 3 c-53 1 -99 0 -103 -4z" fill="#ffd209"/>
<path d="M1405 2467 c-3 -7 -4 -78 -3 -157 l3 -145 105 0 105 0 0 155 0 155
-103 3 c-78 2 -104 0 -107 -11z" fill="#2a91cc" />
<path d="M973 1433 c12 -233 118 -460 288 -618 156 -144 407 -245 609 -245
l70 0 0 89 c0 115 -3 121 -51 121 -58 0 -185 28 -253 56 -157 63 -306 203
-381 357 -45 94 -75 208 -75 290 0 43 -1 45 -37 51 -21 3 -69 6 -107 6 l-69 0
6 -107z" fill="#cd381d"/>
</g>
</svg>
