<?xml version="1.0" standalone="no"?><!DOCTYPE svg PUBLIC "-//W3C//DTD SVG 1.1//EN" "http://www.w3.org/Graphics/SVG/1.1/DTD/svg11.dtd"><svg t="1600268965793" class="icon" viewBox="0 0 1024 1024" version="1.1" xmlns="http://www.w3.org/2000/svg" p-id="3287" xmlns:xlink="http://www.w3.org/1999/xlink" width="32" height="32"><defs><style type="text/css"></style></defs><path d="M310.857143 201.142857h475.428571c40.228571 0 73.142857 32.914286 73.142857 73.142857v548.571429c0 40.228571-32.914286 73.142857-73.142857 73.142857h-475.428571c-40.228571 0-73.142857-32.914286-73.142857-73.142857v-548.571429c0-40.228571 32.914286-73.142857 73.142857-73.142857z" fill="#F0FAED" p-id="3288"></path><path d="M738.742857 950.857143H285.257143C186.514286 950.857143 109.714286 874.057143 109.714286 775.314286V248.685714C109.714286 149.942857 186.514286 73.142857 285.257143 73.142857h457.142857C837.485714 73.142857 914.285714 149.942857 914.285714 248.685714v530.285715c0 95.085714-76.8 171.885714-175.542857 171.885714zM285.257143 131.657143C219.428571 131.657143 164.571429 182.857143 164.571429 248.685714v530.285715c0 65.828571 54.857143 117.028571 117.028571 117.028571h457.142857c65.828571 0 117.028571-54.857143 117.028572-117.028571V248.685714c0-65.828571-54.857143-117.028571-117.028572-117.028571H285.257143z" fill="#262626" p-id="3289"></path><path d="M329.142857 109.714286h54.857143v804.571428H329.142857z" fill="#262626" p-id="3290"></path><path d="M537.6 256h164.571429c18.285714 0 29.257143 10.971429 29.257142 25.6 0 14.628571-10.971429 25.6-29.257142 25.6h-164.571429c-14.628571 0-25.6-10.971429-25.6-25.6 0-14.628571 10.971429-25.6 25.6-25.6zM607.085714 757.028571c-7.314286 0-14.628571-3.657143-18.285714-7.314285L512 672.914286c-10.971429-10.971429-10.971429-29.257143 0-40.228572s29.257143-10.971429 40.228571 0l58.514286 58.514286 84.114286-84.114286c10.971429-10.971429 29.257143-10.971429 40.228571 0s10.971429 29.257143 0 40.228572l-102.4 102.4c-10.971429 7.314286-18.285714 7.314286-25.6 7.314285z" fill="#14CC2D" p-id="3291"></path></svg>