<?xml version="1.0" standalone="no"?><!DOCTYPE svg PUBLIC "-//W3C//DTD SVG 1.1//EN" "http://www.w3.org/Graphics/SVG/1.1/DTD/svg11.dtd"><svg t="1600268941340" class="icon" viewBox="0 0 1024 1024" version="1.1" xmlns="http://www.w3.org/2000/svg" p-id="2694" xmlns:xlink="http://www.w3.org/1999/xlink" width="32" height="32"><defs><style type="text/css"></style></defs><path d="M457.142857 201.142857h365.714286c40.228571 0 73.142857 32.914286 73.142857 73.142857v402.285715c0 120.685714-98.742857 219.428571-219.428571 219.428571h-365.714286c-40.228571 0-73.142857-32.914286-73.142857-73.142857v-402.285714c0-120.685714 98.742857-219.428571 219.428571-219.428572z" fill="#F0FAED" p-id="2695"></path><path d="M621.714286 950.857143H256c-80.457143 0-146.285714-65.828571-146.285714-146.285714V365.714286c0-160.914286 131.657143-292.571429 292.571428-292.571429h365.714286c80.457143 0 146.285714 65.828571 146.285714 146.285714v438.857143c0 160.914286-131.657143 292.571429-292.571428 292.571429zM402.285714 128c-131.657143 0-237.714286 106.057143-237.714285 237.714286v438.857143c0 51.2 40.228571 91.428571 91.428571 91.428571h365.714286c131.657143 0 237.714286-106.057143 237.714285-237.714286V219.428571c0-51.2-40.228571-91.428571-91.428571-91.428571H402.285714z" fill="#262626" p-id="2696"></path><path d="M394.971429 402.285714h91.428571c14.628571 0 29.257143 10.971429 29.257143 29.257143 0 14.628571-10.971429 29.257143-29.257143 29.257143h-91.428571c-14.628571 0-29.257143-10.971429-29.257143-29.257143s10.971429-29.257143 29.257143-29.257143zM394.971429 566.857143h237.714285c14.628571 0 29.257143 10.971429 29.257143 29.257143 0 14.628571-10.971429 29.257143-29.257143 29.257143h-237.714285c-14.628571 0-29.257143-10.971429-29.257143-29.257143s10.971429-29.257143 29.257143-29.257143z" fill="#14CC2D" p-id="2697"></path></svg>